PathFileType	4	(X/Y/Z)	D:\TRACE\spotREDO_2-26-24\spot_justArm_Motion_3_1-platform.trc
DataRate	CameraRate	NumFrames	NumMarkers	Units	OrigDataRate	OrigDataStartFrame	OrigNumFrames
100.00	100.00	      48	5	mm	100.00	2626	      7000
Frame#	Time	Left_Front			Right_Front			Left_Aft			Right_Aft			Post			
		X1	Y1	Z1	X2	Y2	Z2	X3	Y3	Z3	X4	Y4	Z4	X5	Y5	Z5	

2626	26.250	-711.02899	52.55422	-558.19293	703.80023	53.58254	-473.86377	-781.81683	-55.15699	656.21429	787.67780	-49.03107	660.33685	-1.76493	716.02954	-902.86371	
2627	26.260	-711.40118	52.49209	-558.28821	703.44055	53.54103	-474.04834	-782.06311	-55.10608	656.13770	787.16388	-48.92453	660.26013	-2.29030	715.95740	-903.06787	
2628	26.270	-711.69580	52.49246	-558.28595	703.02734	53.56823	-474.03214	-782.18512	-54.94251	656.20813	786.93475	-48.95123	660.27350	-2.68492	715.93823	-903.04395	
2629	26.280	-712.01959	52.39611	-558.27728	702.50677	53.42494	-474.11237	-782.50177	-54.88474	656.19604	786.71973	-48.94242	660.29419	-2.93736	715.85083	-903.09949	
2630	26.290	-712.46130	52.32267	-558.27832	702.24939	53.39024	-474.11731	-782.88623	-54.87244	656.19189	786.32874	-48.84155	660.28760	-3.12647	715.71808	-903.20099	
2631	26.300	-712.78607	52.28384	-558.18103	701.91437	53.16530	-474.13745	-783.15137	-54.87725	656.14038	786.01990	-48.79234	660.27972	-3.47076	715.53290	-903.37335	
2632	26.310	-713.18634	52.21901	-558.24042	701.51099	53.13647	-474.18936	-783.55365	-54.85067	656.20239	785.70325	-48.74187	660.25385	-3.83840	715.36792	-903.45435	
2633	26.320	-713.45807	52.23814	-558.26080	701.28186	53.24567	-474.32544	-783.84485	-54.80560	656.25122	785.33344	-48.57496	660.32751	-4.33313	715.22919	-903.67517	
2634	26.330	-713.64948	52.13669	-558.28253	701.03851	53.16367	-474.25385	-784.27374	-54.79746	656.25806	784.94861	-48.47601	660.29761	-4.55750	715.16113	-903.70660	
2635	26.340	-714.07733	52.12194	-558.30615	700.65057	53.14681	-474.20987	-784.58514	-54.83878	656.23627	784.45605	-48.32301	660.30695	-4.70184	715.06995	-903.63757	
2636	26.350	-714.43683	52.03074	-558.34796	700.26196	53.23399	-474.36298	-784.77142	-54.83691	656.20660	784.11792	-48.25446	660.23108	-5.08263	715.04669	-903.79578	
2637	26.360	-714.75684	51.91982	-558.42377	699.98468	53.15156	-474.28720	-785.06610	-54.73825	656.18646	784.02039	-48.33213	660.26501	-5.39367	714.95386	-903.98608	
2638	26.370	-715.01581	51.78907	-558.49774	699.59906	53.05037	-474.34229	-785.41602	-54.49564	656.18005	783.95673	-48.31490	660.25189	-5.67036	714.82739	-904.09143	
2639	26.380	-715.25287	51.72077	-558.51300	699.40131	53.00323	-474.34082	-785.79175	-54.14648	656.19299	783.78436	-48.23293	660.28027	-5.91027	714.68970	-904.10095	
2640	26.390	-715.44910	51.59538	-558.53339	699.11755	52.89981	-474.40079	-786.08936	-54.11732	656.13800	783.27179	-48.01355	660.33234	-6.37988	714.45581	-904.23193	
2641	26.400	-715.76666	51.52632	-558.53436	698.85626	52.68758	-474.31308	-786.39673	-54.01779	656.13104	782.77100	-47.92251	660.30194	-6.85303	714.34442	-904.38770	
2642	26.410	-716.21405	51.40992	-558.72168	698.62146	52.55281	-474.27252	-786.67859	-53.65764	656.14795	782.45209	-47.79180	660.34998	-7.18459	714.23151	-904.55310	
2643	26.420	-716.55463	51.35460	-558.81445	698.41675	52.27997	-474.28500	-786.96753	-53.69250	656.00238	782.17932	-47.69350	660.30286	-7.63942	714.01373	-904.86438	
2644	26.430	-716.76740	51.24672	-558.89825	698.20764	52.05970	-474.32806	-787.18140	-53.48438	655.96777	782.08759	-47.62688	660.35486	-7.72134	713.81708	-905.06036	
2645	26.440	-716.95068	51.13537	-558.91333	697.83252	51.91383	-474.47296	-787.40442	-53.34352	656.02362	781.80884	-47.43571	660.39655	-7.62456	713.63055	-905.05548	
2646	26.450	-717.09204	50.99676	-558.90704	697.71411	51.86400	-474.50342	-787.56042	-53.27380	656.00232	781.47345	-47.25985	660.36511	-7.92282	713.28821	-905.37836	
2647	26.460	-717.32629	50.80307	-558.94891	697.42047	51.81896	-474.43826	-787.67145	-53.07884	655.93927	781.25415	-47.11581	660.34033	-8.23223	713.01111	-905.70392	
2648	26.470	-717.64435	50.57150	-559.01215	697.15967	51.60970	-474.56723	-788.07501	-53.12318	655.85535	781.01874	-46.91294	660.32153	-8.44940	712.67438	-906.01154	
2649	26.480	-717.97833	50.42616	-559.14392	696.92126	51.55741	-474.66946	-788.27289	-52.96332	655.87225	780.79584	-46.74813	660.24799	-8.73123	712.34528	-906.24622	
2650	26.490	-718.15814	50.26401	-559.18237	696.83887	51.35118	-474.63318	-788.69464	-52.49228	655.80707	780.57544	-46.49120	660.17810	-8.71516	712.03033	-906.46124	
2651	26.500	-718.37762	50.11018	-559.21942	696.68079	51.24379	-474.73840	-788.77167	-52.14845	655.85999	780.35175	-46.15489	660.21582	-8.97443	711.74512	-906.80682	
2652	26.510	-718.38922	49.90414	-559.29108	696.54248	51.12878	-474.79312	-788.92798	-51.94940	655.83856	780.28088	-45.94863	660.22028	-9.08364	711.44928	-907.02246	
2653	26.520	-718.52881	49.46894	-559.32910	696.22919	50.84570	-475.01749	-788.87115	-51.67360	655.94189	780.21149	-45.70808	660.20740	-9.20665	711.09045	-907.22437	
2654	26.530	-718.66266	49.25739	-559.50684	696.10522	50.63448	-475.10043	-789.12830	-51.62805	655.78064	779.94513	-45.31224	660.13275	-9.10732	710.52185	-907.37860	
2655	26.540	-718.88800	48.92452	-559.58020	695.98737	50.35626	-475.23022	-789.30109	-51.41576	655.69714	779.80615	-45.12188	660.07361	-9.50525	710.10773	-908.07861	
2656	26.550	-718.96765	48.68545	-559.62421	695.85547	49.96757	-475.35489	-789.37292	-51.11598	655.61591	779.68927	-44.83561	659.96570	-9.72792	709.82751	-908.48773	
2657	26.560	-719.01453	48.42688	-559.73480	695.75677	49.83457	-475.44281	-789.49225	-50.77508	655.60852	779.61029	-44.48030	659.87720	-9.73505	709.27209	-909.11108	
2658	26.570	-719.10223	48.12514	-559.80011	695.75140	49.65889	-475.52353	-789.76886	-50.16040	655.54913	779.54688	-44.07607	659.80396	-9.76277	708.69470	-909.51465	
2659	26.580	-719.09332	47.86855	-559.91095	695.71271	49.26533	-475.60513	-789.85468	-49.86736	655.55835	779.43896	-43.75510	659.74933	-9.76804	708.24152	-910.06763	
2660	26.590	-719.18646	47.44987	-559.92908	695.64990	49.06231	-475.69504	-789.91559	-49.58305	655.54779	779.28314	-43.39832	659.73499	-9.76534	707.70105	-910.53168	
2661	26.600	-719.31561	47.07450	-560.07288	695.49225	48.76595	-475.83121	-789.85944	-49.27683	655.47546	779.14331	-43.20698	659.69623	-9.96238	707.11804	-911.18530	
2662	26.610	-719.41083	46.57226	-560.22119	695.49579	48.41215	-475.99530	-789.73761	-48.87101	655.41901	779.08813	-42.83758	659.52557	-10.15027	706.47821	-911.80890	
2663	26.620	-719.46759	46.11049	-560.35724	695.39697	47.98978	-476.14432	-789.82721	-48.49852	655.28992	779.22028	-42.42436	659.46997	-10.20414	705.91870	-912.18213	
2664	26.630	-719.52148	45.91436	-560.45404	695.28894	47.50290	-476.26102	-789.95062	-48.01210	655.10815	779.13892	-41.87514	659.41418	-10.10246	705.36798	-912.80640	
2665	26.640	-719.49780	45.54963	-560.63507	695.25488	47.20834	-476.40674	-790.05042	-47.40513	655.07471	779.23328	-41.37677	659.33685	-10.13523	704.53363	-913.40979	
2666	26.650	-719.51910	45.14560	-560.84479	695.32849	46.98704	-476.46707	-790.12354	-46.90123	655.01147	779.19537	-40.85254	659.34082	-10.17365	703.96912	-913.91797	
2667	26.660	-719.65436	44.78541	-561.07098	695.28137	46.56924	-476.80865	-790.06805	-46.51860	654.89636	779.13452	-40.27797	659.21515	-10.13274	703.26245	-914.50391	
2668	26.670	-719.61981	43.96664	-561.19751	695.42615	46.28063	-476.96442	-789.94934	-46.15245	654.79230	779.18304	-39.97522	658.92645	-10.02934	702.18671	-915.06989	
2669	26.680	-719.50183	43.42862	-561.33356	695.45972	45.79248	-477.01178	-790.00195	-45.51194	654.61774	779.20831	-39.70116	658.96387	-10.19611	701.56049	-915.85718	
2670	26.690	-719.47998	43.11032	-561.52899	695.39716	45.23242	-477.17648	-789.99622	-45.01763	654.55811	779.11884	-38.79649	658.86603	-10.00883	700.77893	-916.60791	
2671	26.700	-719.38739	42.78946	-561.67682	695.34662	44.95378	-477.44333	-790.04852	-44.29313	654.46307	779.03485	-38.23323	658.83197	-10.18140	699.92334	-917.52905	
2672	26.710	-719.39282	42.13545	-561.86102	695.35931	44.27703	-477.57642	-790.01947	-43.77627	654.30811	779.02515	-37.40612	658.62708	-10.18057	699.04260	-918.40985	
2673	26.720	-719.25153	41.30109	-562.11462	695.45062	43.77617	-477.71487	-789.89758	-43.23150	654.30951	779.19550	-37.14371	658.57648	-9.94705	698.06787	-919.19940	
